<mxfile host="Electron" modified="2024-04-10T06:33:11.532Z" agent="Mozilla/5.0 (Windows NT 10.0; Win64; x64) AppleWebKit/537.36 (KHTML, like Gecko) draw.io/24.1.0 Chrome/120.0.6099.109 Electron/28.1.0 Safari/537.36" etag="PK51zlx8fM9UNWDaOWCz" version="24.1.0" type="device">
  <diagram id="R2lEEEUBdFMjLlhIrx00" name="Page-1">
    <mxGraphModel dx="2028" dy="838" grid="1" gridSize="10" guides="1" tooltips="1" connect="1" arrows="1" fold="1" page="1" pageScale="1" pageWidth="850" pageHeight="1100" math="0" shadow="0" extFonts="Permanent Marker^https://fonts.googleapis.com/css?family=Permanent+Marker">
      <root>
        <mxCell id="0" />
        <mxCell id="1" parent="0" />
        <mxCell id="T72MSv9mtqEaRkOIrubD-1" value="&lt;font style=&quot;font-size: 30px;&quot;&gt;ERD&lt;/font&gt;" style="shape=ext;double=1;rounded=1;whiteSpace=wrap;html=1;" vertex="1" parent="1">
          <mxGeometry x="365" y="50" width="120" height="80" as="geometry" />
        </mxCell>
        <mxCell id="T72MSv9mtqEaRkOIrubD-2" value="DB Versandhandel" style="shape=datastore;whiteSpace=wrap;html=1;" vertex="1" parent="1">
          <mxGeometry x="365" y="500" width="110" height="160" as="geometry" />
        </mxCell>
        <mxCell id="T72MSv9mtqEaRkOIrubD-8" style="edgeStyle=orthogonalEdgeStyle;rounded=0;orthogonalLoop=1;jettySize=auto;html=1;exitX=1;exitY=0.5;exitDx=0;exitDy=0;" edge="1" parent="1" source="T72MSv9mtqEaRkOIrubD-3" target="T72MSv9mtqEaRkOIrubD-6">
          <mxGeometry relative="1" as="geometry" />
        </mxCell>
        <mxCell id="T72MSv9mtqEaRkOIrubD-3" value="kaufen" style="shape=rhombus;perimeter=rhombusPerimeter;whiteSpace=wrap;html=1;align=center;" vertex="1" parent="1">
          <mxGeometry x="360" y="290" width="120" height="60" as="geometry" />
        </mxCell>
        <mxCell id="T72MSv9mtqEaRkOIrubD-7" style="edgeStyle=orthogonalEdgeStyle;rounded=0;orthogonalLoop=1;jettySize=auto;html=1;exitX=1;exitY=0.5;exitDx=0;exitDy=0;entryX=0;entryY=0.5;entryDx=0;entryDy=0;" edge="1" parent="1" source="T72MSv9mtqEaRkOIrubD-5" target="T72MSv9mtqEaRkOIrubD-3">
          <mxGeometry relative="1" as="geometry" />
        </mxCell>
        <mxCell id="T72MSv9mtqEaRkOIrubD-36" style="rounded=0;orthogonalLoop=1;jettySize=auto;html=1;exitX=0.75;exitY=0;exitDx=0;exitDy=0;entryX=0.5;entryY=1;entryDx=0;entryDy=0;" edge="1" parent="1" source="T72MSv9mtqEaRkOIrubD-5" target="T72MSv9mtqEaRkOIrubD-13">
          <mxGeometry relative="1" as="geometry" />
        </mxCell>
        <mxCell id="T72MSv9mtqEaRkOIrubD-37" style="rounded=0;orthogonalLoop=1;jettySize=auto;html=1;exitX=0.25;exitY=0;exitDx=0;exitDy=0;entryX=1;entryY=1;entryDx=0;entryDy=0;" edge="1" parent="1" source="T72MSv9mtqEaRkOIrubD-5" target="T72MSv9mtqEaRkOIrubD-17">
          <mxGeometry relative="1" as="geometry" />
        </mxCell>
        <mxCell id="T72MSv9mtqEaRkOIrubD-38" style="rounded=0;orthogonalLoop=1;jettySize=auto;html=1;exitX=0;exitY=0;exitDx=0;exitDy=0;entryX=1;entryY=0.5;entryDx=0;entryDy=0;" edge="1" parent="1" source="T72MSv9mtqEaRkOIrubD-5" target="T72MSv9mtqEaRkOIrubD-16">
          <mxGeometry relative="1" as="geometry" />
        </mxCell>
        <mxCell id="T72MSv9mtqEaRkOIrubD-39" style="rounded=0;orthogonalLoop=1;jettySize=auto;html=1;exitX=0;exitY=0.75;exitDx=0;exitDy=0;entryX=1;entryY=0.5;entryDx=0;entryDy=0;" edge="1" parent="1" source="T72MSv9mtqEaRkOIrubD-5" target="T72MSv9mtqEaRkOIrubD-15">
          <mxGeometry relative="1" as="geometry" />
        </mxCell>
        <mxCell id="T72MSv9mtqEaRkOIrubD-40" style="rounded=0;orthogonalLoop=1;jettySize=auto;html=1;exitX=0.25;exitY=1;exitDx=0;exitDy=0;entryX=1;entryY=0;entryDx=0;entryDy=0;" edge="1" parent="1" source="T72MSv9mtqEaRkOIrubD-5" target="T72MSv9mtqEaRkOIrubD-14">
          <mxGeometry relative="1" as="geometry" />
        </mxCell>
        <mxCell id="T72MSv9mtqEaRkOIrubD-41" style="rounded=0;orthogonalLoop=1;jettySize=auto;html=1;exitX=0.5;exitY=1;exitDx=0;exitDy=0;entryX=0.5;entryY=0;entryDx=0;entryDy=0;" edge="1" parent="1" source="T72MSv9mtqEaRkOIrubD-5" target="T72MSv9mtqEaRkOIrubD-12">
          <mxGeometry relative="1" as="geometry" />
        </mxCell>
        <mxCell id="T72MSv9mtqEaRkOIrubD-5" value="Kunden" style="rounded=1;arcSize=10;whiteSpace=wrap;html=1;align=center;" vertex="1" parent="1">
          <mxGeometry x="130" y="300" width="100" height="40" as="geometry" />
        </mxCell>
        <mxCell id="T72MSv9mtqEaRkOIrubD-42" style="rounded=0;orthogonalLoop=1;jettySize=auto;html=1;exitX=0.1;exitY=-0.05;exitDx=0;exitDy=0;entryX=0.5;entryY=1;entryDx=0;entryDy=0;exitPerimeter=0;" edge="1" parent="1" source="T72MSv9mtqEaRkOIrubD-6" target="T72MSv9mtqEaRkOIrubD-24">
          <mxGeometry relative="1" as="geometry" />
        </mxCell>
        <mxCell id="T72MSv9mtqEaRkOIrubD-43" style="rounded=0;orthogonalLoop=1;jettySize=auto;html=1;exitX=0.75;exitY=0;exitDx=0;exitDy=0;" edge="1" parent="1" source="T72MSv9mtqEaRkOIrubD-6" target="T72MSv9mtqEaRkOIrubD-23">
          <mxGeometry relative="1" as="geometry" />
        </mxCell>
        <mxCell id="T72MSv9mtqEaRkOIrubD-44" style="rounded=0;orthogonalLoop=1;jettySize=auto;html=1;exitX=1;exitY=0.25;exitDx=0;exitDy=0;entryX=0;entryY=1;entryDx=0;entryDy=0;" edge="1" parent="1" source="T72MSv9mtqEaRkOIrubD-6" target="T72MSv9mtqEaRkOIrubD-22">
          <mxGeometry relative="1" as="geometry" />
        </mxCell>
        <mxCell id="T72MSv9mtqEaRkOIrubD-45" style="rounded=0;orthogonalLoop=1;jettySize=auto;html=1;exitX=1;exitY=0.75;exitDx=0;exitDy=0;entryX=0;entryY=0.5;entryDx=0;entryDy=0;" edge="1" parent="1" source="T72MSv9mtqEaRkOIrubD-6" target="T72MSv9mtqEaRkOIrubD-21">
          <mxGeometry relative="1" as="geometry" />
        </mxCell>
        <mxCell id="T72MSv9mtqEaRkOIrubD-47" style="rounded=0;orthogonalLoop=1;jettySize=auto;html=1;exitX=0.25;exitY=1;exitDx=0;exitDy=0;entryX=0.5;entryY=0;entryDx=0;entryDy=0;" edge="1" parent="1" source="T72MSv9mtqEaRkOIrubD-6" target="T72MSv9mtqEaRkOIrubD-19">
          <mxGeometry relative="1" as="geometry" />
        </mxCell>
        <mxCell id="T72MSv9mtqEaRkOIrubD-6" value="Artikel" style="rounded=1;arcSize=10;whiteSpace=wrap;html=1;align=center;" vertex="1" parent="1">
          <mxGeometry x="600" y="300" width="100" height="40" as="geometry" />
        </mxCell>
        <mxCell id="T72MSv9mtqEaRkOIrubD-12" value="Plz" style="ellipse;whiteSpace=wrap;html=1;align=center;" vertex="1" parent="1">
          <mxGeometry x="150" y="420" width="100" height="40" as="geometry" />
        </mxCell>
        <mxCell id="T72MSv9mtqEaRkOIrubD-13" value="Geb Datum" style="ellipse;whiteSpace=wrap;html=1;align=center;" vertex="1" parent="1">
          <mxGeometry x="170" y="180" width="100" height="40" as="geometry" />
        </mxCell>
        <mxCell id="T72MSv9mtqEaRkOIrubD-14" value="&lt;u&gt;KundenID&lt;/u&gt;" style="ellipse;whiteSpace=wrap;html=1;align=center;" vertex="1" parent="1">
          <mxGeometry x="40" y="390" width="100" height="40" as="geometry" />
        </mxCell>
        <mxCell id="T72MSv9mtqEaRkOIrubD-15" value="Ort" style="ellipse;whiteSpace=wrap;html=1;align=center;" vertex="1" parent="1">
          <mxGeometry x="-20" y="330" width="100" height="40" as="geometry" />
        </mxCell>
        <mxCell id="T72MSv9mtqEaRkOIrubD-16" value="Adresse" style="ellipse;whiteSpace=wrap;html=1;align=center;" vertex="1" parent="1">
          <mxGeometry x="-10" y="260" width="100" height="40" as="geometry" />
        </mxCell>
        <mxCell id="T72MSv9mtqEaRkOIrubD-17" value="Name" style="ellipse;whiteSpace=wrap;html=1;align=center;" vertex="1" parent="1">
          <mxGeometry x="50" y="200" width="100" height="40" as="geometry" />
        </mxCell>
        <mxCell id="T72MSv9mtqEaRkOIrubD-19" value="MwSt" style="ellipse;whiteSpace=wrap;html=1;align=center;" vertex="1" parent="1">
          <mxGeometry x="580" y="410" width="100" height="40" as="geometry" />
        </mxCell>
        <mxCell id="T72MSv9mtqEaRkOIrubD-20" value="Listenpreis" style="ellipse;whiteSpace=wrap;html=1;align=center;" vertex="1" parent="1">
          <mxGeometry x="730" y="370" width="100" height="40" as="geometry" />
        </mxCell>
        <mxCell id="T72MSv9mtqEaRkOIrubD-21" value="Preis" style="ellipse;whiteSpace=wrap;html=1;align=center;" vertex="1" parent="1">
          <mxGeometry x="770" y="300" width="100" height="40" as="geometry" />
        </mxCell>
        <mxCell id="T72MSv9mtqEaRkOIrubD-22" value="Position" style="ellipse;whiteSpace=wrap;html=1;align=center;" vertex="1" parent="1">
          <mxGeometry x="750" y="240" width="100" height="40" as="geometry" />
        </mxCell>
        <mxCell id="T72MSv9mtqEaRkOIrubD-23" value="Art" style="ellipse;whiteSpace=wrap;html=1;align=center;" vertex="1" parent="1">
          <mxGeometry x="670" y="190" width="100" height="40" as="geometry" />
        </mxCell>
        <mxCell id="T72MSv9mtqEaRkOIrubD-24" value="&lt;u&gt;Artikel ID&lt;/u&gt;" style="ellipse;whiteSpace=wrap;html=1;align=center;" vertex="1" parent="1">
          <mxGeometry x="540" y="180" width="100" height="40" as="geometry" />
        </mxCell>
        <mxCell id="T72MSv9mtqEaRkOIrubD-31" value="1" style="text;html=1;align=center;verticalAlign=middle;resizable=0;points=[];autosize=1;strokeColor=none;fillColor=none;" vertex="1" parent="1">
          <mxGeometry x="245" y="288" width="30" height="30" as="geometry" />
        </mxCell>
        <mxCell id="T72MSv9mtqEaRkOIrubD-32" value="N" style="text;html=1;align=center;verticalAlign=middle;resizable=0;points=[];autosize=1;strokeColor=none;fillColor=none;" vertex="1" parent="1">
          <mxGeometry x="565" y="288" width="30" height="30" as="geometry" />
        </mxCell>
        <mxCell id="T72MSv9mtqEaRkOIrubD-33" value="N" style="text;html=1;align=center;verticalAlign=middle;resizable=0;points=[];autosize=1;strokeColor=none;fillColor=none;" vertex="1" parent="1">
          <mxGeometry x="565" y="328" width="30" height="30" as="geometry" />
        </mxCell>
        <mxCell id="T72MSv9mtqEaRkOIrubD-34" value="N" style="text;html=1;align=center;verticalAlign=middle;resizable=0;points=[];autosize=1;strokeColor=none;fillColor=none;" vertex="1" parent="1">
          <mxGeometry x="245" y="328" width="30" height="30" as="geometry" />
        </mxCell>
        <mxCell id="T72MSv9mtqEaRkOIrubD-35" value="" style="endArrow=none;html=1;rounded=0;exitX=0.5;exitY=0;exitDx=0;exitDy=0;entryX=0.5;entryY=1;entryDx=0;entryDy=0;" edge="1" parent="1" source="T72MSv9mtqEaRkOIrubD-2" target="T72MSv9mtqEaRkOIrubD-3">
          <mxGeometry width="50" height="50" relative="1" as="geometry">
            <mxPoint x="430" y="240" as="sourcePoint" />
            <mxPoint x="480" y="190" as="targetPoint" />
          </mxGeometry>
        </mxCell>
        <mxCell id="T72MSv9mtqEaRkOIrubD-46" style="rounded=0;orthogonalLoop=1;jettySize=auto;html=1;exitX=0.75;exitY=1;exitDx=0;exitDy=0;entryX=0.27;entryY=0.05;entryDx=0;entryDy=0;entryPerimeter=0;" edge="1" parent="1" source="T72MSv9mtqEaRkOIrubD-6" target="T72MSv9mtqEaRkOIrubD-20">
          <mxGeometry relative="1" as="geometry" />
        </mxCell>
      </root>
    </mxGraphModel>
  </diagram>
</mxfile>
